<svg xmlns="http://www.w3.org/2000/svg" viewBox="0 0 84.63 71.78"><defs><style>.cls-1{fill:#009fe3;fill-rule:evenodd;}</style></defs><g id="Слой_2" data-name="Слой 2"><g id="Слой_1-2" data-name="Слой 1"><polygon class="cls-1" points="0 21.23 18.89 21.23 18.89 14.17 14.16 14.17 14.16 16.61 8.46 16.61 8.46 12.8 13.78 12.8 13.78 8.19 8.46 8.19 8.46 4.62 13.7 4.62 13.7 7.05 18.43 7.05 18.43 0 0 0 0 4.62 2.31 4.62 2.31 16.61 0 16.61 0 21.23 0 21.23"/><path class="cls-1" d="M21.22,16.61h2.51v-12H21.22V0H32V4.61H29.88v3.7h1.57c2.05.08,4-.52,4-3.58,0-.22-1.43,0-1.45-.2V0H44.19V4.61h-3a7.89,7.89,0,0,1-3.7,6.78c.72,3.68,3,5.15,7,5.21v4.61H42.14a10,10,0,0,1-9.89-8.29H29.88v3.69h1.78v4.61H21.22V16.61Z"/><path class="cls-1" d="M41.79,21.21H52.56V16.6H50.12c0-.15.17-.56.36-1.14h7.18c.15.44.28.83.39,1.14H56.29v4.61H67.05V16.6H64.86L58.77,0H50.51L44.43,16.6H41.79v4.61ZM51.93,11.3c.79-2.22,1.65-4.58,2.15-5.87.64,1.7,1.42,3.86,2.13,5.87Z"/><polygon class="cls-1" points="69.2 16.61 71.51 16.61 71.51 4.61 69.16 4.61 69.16 7.01 64.54 7.01 64.54 0 84.63 0 84.63 7.01 80.02 7.01 80.02 4.61 77.66 4.61 77.66 16.61 79.97 16.61 79.97 21.22 69.2 21.22 69.2 16.61 69.2 16.61"/><path class="cls-1" d="M21.22,41.59h2.51v-12H21.22V25h11.7c9.91,0,11.88,10.57,5.16,14.12.71,2.79,2.72,2.48,4.38,2.49V46.2H40c-4.56,0-6.43-2.94-7.35-6.17H29.88v1.56h1.84V46.2H21.22V41.59Zm10.91-12H29.88v5.82h2.39c4.57,0,4.44-5.82-.14-5.82Z"/><polygon class="cls-1" points="55.43 24.98 55.43 29.59 53.13 29.59 53.13 41.59 55.43 41.59 55.43 46.2 44.64 46.2 44.64 41.59 46.97 41.59 46.97 29.59 44.67 29.59 44.67 24.98 55.43 24.98 55.43 24.98"/><polygon class="cls-1" points="67.59 24.98 76.17 37.34 76.17 29.59 73.86 29.59 73.86 24.98 84.63 24.98 84.63 29.59 82.32 29.59 82.32 46.2 75.59 46.2 67.12 33.99 67.12 41.59 69.42 41.59 69.42 46.2 58.66 46.2 58.66 41.59 60.97 41.59 60.97 29.59 58.66 29.59 58.66 24.98 67.59 24.98 67.59 24.98"/><path class="cls-1" d="M0,54.57H2.31v12H0v4.61H11.5c4.3,0,8.13-2.5,8.2-6.2s-1.49-5.48-4-6.61c2.44-4.26-.61-8.4-5.47-8.4H0v4.61Zm9.67,3H8.46v-3H9.73a1.49,1.49,0,1,1-.06,3Zm1,9H8.46V61.75h2.25c4.1,0,3.93,4.81,0,4.81Z"/><path class="cls-1" d="M30.52,71.78C25.86,71.85,21,68.9,21,62.57v-8H18.9V50H29.72v4.63H27.34v8c0,2.95,1.42,4,3.33,4h0c1.91,0,3.53-1,3.53-4v-8H31.52V50H42.34v4.63H40.29v8c0,6.33-4.91,9.28-9.57,9.21Z"/><path class="cls-1" d="M41.91,66.57h2.51v-12H41.91V50H53.62c9.9,0,11.87,10.57,5.15,14.11.71,2.79,4.82,3.32,6.7.84l3,4.06c-3.09,2.8-11.28,4.45-15.12-4H50.57v1.57h1.85v4.61H41.91V66.57Zm10.92-12H50.57v5.82H53c4.57,0,4.44-5.82-.13-5.82Z"/><path class="cls-1" d="M84.49,67.06c-1.56,2.61-4.84,4.53-9.66,4.53-14.92,0-14.48-22.2-.26-22.06,4.94,0,7.43,1.75,8.89,3.44l0,5.28H78.35l0-2.6A4.53,4.53,0,0,0,75,54.51c-3.06.05-5.21,2.32-5.13,6,.08,3.42,2.09,5.84,5.18,5.85a6.38,6.38,0,0,0,4-1.17v-.68H75.15V59.92h9.34v7.14Z"/><polygon class="cls-1" points="0 46.2 18.89 46.2 18.89 39.15 14.16 39.15 14.16 41.59 8.46 41.59 8.46 37.78 13.78 37.78 13.78 33.16 8.46 33.16 8.46 29.59 13.7 29.59 13.7 32.03 18.43 32.03 18.43 24.98 0 24.98 0 29.59 2.31 29.59 2.31 41.59 0 41.59 0 46.2 0 46.2"/></g></g></svg>