<svg xmlns="http://www.w3.org/2000/svg" viewBox="0 0 117.94 132.37"><defs><style>.cls-1{fill:#b8ceda;}.cls-1,.cls-2,.cls-3{stroke:#292f71;stroke-miterlimit:10;}.cls-2,.cls-3{fill:none;}.cls-3{stroke-width:3px;}</style></defs><g id="Слой_2" data-name="Слой 2"><g id="Слой_1-2" data-name="Слой 1"><path class="cls-1" d="M39.85,96.67a1.85,1.85,0,0,1,1.85-1.85h2q4.06,0,5.74-1a3.68,3.68,0,0,0,2-2.36A61,61,0,0,0,52,85.4a1.86,1.86,0,0,0-2-2c-2.88.15-5.23.23-7,.23q-18.61,0-29.1-9.24T3.47,51.62q0-15,11.65-26.14T45,14.33c1.59,0,3.27.08,5,.25a1.88,1.88,0,0,0,2.05-2c-.17-2.66-.31-4.31-.43-5a3.19,3.19,0,0,0-1.51-2c-.84-.55-2.67-.83-5.47-.83H41.7a1.85,1.85,0,0,1-1.85-1.86V2.35a1.85,1.85,0,0,1,2-1.85q6.11.36,15.25.36Q68.9.86,75,.51a1.84,1.84,0,0,1,2,1.85v.53A1.85,1.85,0,0,1,75.1,4.75H72.35q-5.07,0-6.38,1.39c-.86.92-1.3,3.17-1.3,6.73h0a1.85,1.85,0,0,0,2,1.84q4.29-.24,7.26-.24,18.09,0,28.8,9.1a28.79,28.79,0,0,1,10.71,22.91q0,15.15-11.68,26.25T72,83.84a46.94,46.94,0,0,1-5.12-.29,1.86,1.86,0,0,0-2.06,1.91c.11,3.88.55,6.36,1.3,7.45q1.34,1.91,6.75,1.91H75.1A1.85,1.85,0,0,1,77,96.67v.55A1.84,1.84,0,0,1,75,99.07q-6.78-.36-16.08-.36-10.43,0-17.14.36a1.84,1.84,0,0,1-1.94-1.85Zm12.34-74.9a1.86,1.86,0,0,0-1.63-1.84,40.74,40.74,0,0,0-5.31-.39q-14.68,0-21.12,8t-6.44,21q0,14.51,8.17,22.39A26.66,26.66,0,0,0,45,78.84a36.67,36.67,0,0,0,5.63-.48,1.87,1.87,0,0,0,1.58-1.84Zm12.55-.11V76.39a1.87,1.87,0,0,0,1.65,1.85,42.49,42.49,0,0,0,5.09.33q14.82,0,21.26-8t6.44-21q0-11.52-4.57-17.88a30.84,30.84,0,0,0-10.15-9.38,26.26,26.26,0,0,0-12.71-3,28.2,28.2,0,0,0-5.49.58A1.86,1.86,0,0,0,64.74,21.66Z"/><line class="cls-1" x1="58.93" y1="98.71" x2="58.93" y2="0.86"/><line class="cls-2" x1="58.97" y1="98.87" x2="58.97" y2="132.37"/><path class="cls-3" d="M1.5,99.29c0,18.41,55.5,3.25,55.5,33.08"/><path class="cls-3" d="M14,109c6.2-.88,12.44-5.29,12.44-9.71"/><line class="cls-2" x1="2.56" y1="99.83" x2="25.54" y2="99.83"/><path class="cls-3" d="M116.44,99.27c0,18.41-55.5,3.26-55.5,33.09"/><path class="cls-3" d="M103.91,109c-6.2-.87-12.44-5.29-12.44-9.7"/><line class="cls-2" x1="115.39" y1="99.82" x2="92.41" y2="99.82"/></g></g></svg>