<svg xmlns="http://www.w3.org/2000/svg" viewBox="0 0 396.34 135.37"><defs><style>.cls-1{fill:#dac4b8;}.cls-1,.cls-2,.cls-3{stroke:#292f71;stroke-miterlimit:10;}.cls-2,.cls-3{fill:none;}.cls-2{stroke-width:3px;}</style></defs><g id="Слой_2" data-name="Слой 2"><g id="Слой_1-2" data-name="Слой 1"><path class="cls-1" d="M39.85,96.67a1.85,1.85,0,0,1,1.85-1.85h2q4.06,0,5.74-1a3.68,3.68,0,0,0,2-2.36A61,61,0,0,0,52,85.4a1.86,1.86,0,0,0-2-2c-2.88.15-5.23.23-7,.23q-18.61,0-29.1-9.24T3.47,51.62q0-15,11.65-26.14T45,14.33c1.59,0,3.27.08,5,.25a1.88,1.88,0,0,0,2.05-2c-.17-2.66-.31-4.31-.43-5a3.19,3.19,0,0,0-1.51-2c-.84-.55-2.67-.83-5.47-.83H41.7a1.85,1.85,0,0,1-1.85-1.86V2.35a1.85,1.85,0,0,1,2-1.85q6.11.36,15.25.36Q68.9.86,75,.51a1.84,1.84,0,0,1,2,1.85v.53A1.85,1.85,0,0,1,75.1,4.75H72.35q-5.07,0-6.38,1.39c-.86.92-1.3,3.17-1.3,6.73h0a1.85,1.85,0,0,0,2,1.84q4.29-.24,7.26-.24,18.09,0,28.8,9.1a28.79,28.79,0,0,1,10.71,22.91q0,15.15-11.68,26.25T72,83.84a46.94,46.94,0,0,1-5.12-.29,1.86,1.86,0,0,0-2.06,1.91c.11,3.88.55,6.36,1.3,7.45q1.34,1.91,6.75,1.91H75.1A1.85,1.85,0,0,1,77,96.67v.55A1.84,1.84,0,0,1,75,99.07q-6.78-.36-16.08-.36-10.43,0-17.14.36a1.84,1.84,0,0,1-1.94-1.85Zm12.34-74.9a1.86,1.86,0,0,0-1.63-1.84,40.74,40.74,0,0,0-5.31-.39q-14.68,0-21.12,8t-6.44,21q0,14.51,8.17,22.39A26.66,26.66,0,0,0,45,78.84a36.67,36.67,0,0,0,5.63-.48,1.87,1.87,0,0,0,1.58-1.84Zm12.55-.11V76.39a1.87,1.87,0,0,0,1.65,1.85,42.49,42.49,0,0,0,5.09.33q14.82,0,21.26-8t6.44-21q0-11.52-4.57-17.88a30.84,30.84,0,0,0-10.15-9.38,26.26,26.26,0,0,0-12.71-3,28.2,28.2,0,0,0-5.49.58A1.86,1.86,0,0,0,64.74,21.66Z"/><path class="cls-1" d="M132.17,74.21a1.17,1.17,0,0,0-1.09,1.17v7.53l0,5c0,2.43,0,4.35.07,5.76a1.15,1.15,0,0,0,1.07,1.11q4.69.31,10,.31a51.18,51.18,0,0,0,6.62-.35,16.71,16.71,0,0,0,3.08-.71,1.15,1.15,0,0,0,.74-.79q.72-2.59,1.45-6.21a1.17,1.17,0,0,1,1.14-.94h0a1.17,1.17,0,0,1,1.16,1.3q-.79,6.65-.79,9l0,.46A1.18,1.18,0,0,1,154.63,98q-3.47.25-6.82.26l-5.52-.11Q133.15,98,128.86,98c-2.49,0-5.73.06-9.72.2A1.17,1.17,0,0,1,117.93,97V96H119c2,0,3.32-.2,3.85-.6s.88-1.34,1-2.81.27-4.74.27-9.78V63.49q0-4.74-.23-7.77a16.5,16.5,0,0,0-.49-3.6,2,2,0,0,0-.76-.9,9.61,9.61,0,0,0-3-.56L118,50.49a1.16,1.16,0,0,1-1-1.16h0a1.17,1.17,0,0,1,1.16-1.17h2.64l3.72.13c2.09.08,3.67.12,4.75.12l13.5-.21,6.4,0c1.71,0,3.44,0,5.18.14a1.17,1.17,0,0,1,1,1.44,41,41,0,0,0-1.07,8.4,1.16,1.16,0,0,1-1.16,1.13H153a1.17,1.17,0,0,1-1.16-1.15,44.23,44.23,0,0,0-.28-4.57,1.14,1.14,0,0,0-.77-.95,30.57,30.57,0,0,0-9.52-1.31c-2.88,0-5.88.12-9,.34a1.17,1.17,0,0,0-1.08,1.18c0,1.83,0,3.67-.08,5.5l-.07,5.41v6a1.17,1.17,0,0,0,1.09,1.16c1.88.12,3.56.18,5.06.18,5.58,0,8.74-.2,9.47-.58s1.11-1.59,1.11-3.61V65.78A1.16,1.16,0,0,1,149,64.62h0a1.16,1.16,0,0,1,1.17,1.22Q150,70.3,150,73.09c0,1.92.06,4.13.18,6.65A1.17,1.17,0,0,1,149,81h0a1.16,1.16,0,0,1-1.17-1.16v-.87q0-3.37-1.32-4.14t-9.3-.75C135.57,74,133.89,74.1,132.17,74.21Z"/><path class="cls-1" d="M212.32,55.76,201.87,77.5Q196,89.74,192.23,98.89h-1.4q-1.31-3.12-7.46-16.08l-12.6-26.08V83.91c0,6.33.25,9.93.76,10.78S173.61,96,176.25,96h1.3v2.21c-3.26-.16-5.92-.24-8-.24q-2.22,0-8.84.24V96H163a5.07,5.07,0,0,0,3.1-.67,3.67,3.67,0,0,0,1-2.43q.45-4.92.45-10.61V62.37a89.73,89.73,0,0,0-.31-9.53,2.49,2.49,0,0,0-1-1.83,6.85,6.85,0,0,0-3.57-.63h-1.86V48.16c4.08.17,6.64.25,7.7.25,1.34,0,3.23-.08,5.7-.25Q178.41,57.63,184,69l9.25,19,8.55-17.62q4.5-9.26,10.27-22.27,4.4.26,6.19.25,2.07,0,7.49-.25v2.22h-2.3c-2.07,0-3.34.36-3.8,1.07s-.69,3.29-.69,7.72v25.7q0,8.58.73,9.84c.48.84,1.83,1.27,4,1.27h2v2.21q-4.89-.24-9.35-.24-4.94,0-10.3.24V96h2.32c1.85,0,3-.41,3.35-1.22s.58-4.28.58-10.42Z"/><path class="cls-1" d="M249.38,50.38h-1.51c-2.79,0-4.38.39-4.77,1.16s-.58,4.28-.58,10.51V91.83L250,81.14l10.76-15.68,11.56-17.3,5.35.25q1.13,0,8-.25v2.22H283c-2.32,0-3.65.43-4,1.3s-.51,4.71-.51,11.53V82.69q0,10.36.51,11.83c.34,1,1.67,1.46,4,1.46h2.71v2.21Q281.34,98,275.5,98q-6.09,0-10.86.24V96h2.42c2.25,0,3.61-.48,4.08-1.43s.7-5,.7-12V63.21c0-1.87.1-5.05.28-9.53L249.38,87.12c-4.48,6.58-7,10.08-7.53,10.47s-2.68.91-6.43,1.52q.57-8.65.56-15.3V62.05q0-9-.66-10.35c-.45-.88-1.76-1.32-3.94-1.32h-2.6V48.16q5.44.26,10,.25,6.23,0,10.62-.25Z"/><path class="cls-1" d="M292.16,100.58a98.48,98.48,0,0,0-3.41,9.92h-2.63A78.31,78.31,0,0,0,288,100.41L288.4,97A32.19,32.19,0,0,0,297,83.87q2.45-7.23,2.45-24.56a41.32,41.32,0,0,0-.39-7.14c-.26-1.19-1.65-1.79-4.18-1.79h-2.54V48.16q8.65.44,22,.43l21.41-.39,2.71,0v2.22h-2.64c-2.58,0-4,.53-4.18,1.58a102.1,102.1,0,0,0-.32,11.29V83.11a107.94,107.94,0,0,0,.3,11.27c.2,1.06,1.6,1.6,4.2,1.6h4.19a73.17,73.17,0,0,0-1.55,14.52h-2.64a88.62,88.62,0,0,0-.81-9.92,16.54,16.54,0,0,0-5.25-2q-2.94-.61-15.8-.61a138.16,138.16,0,0,0-14.93.49A22.94,22.94,0,0,0,292.16,100.58Zm32.17-49q-3.16-.28-10-.28-6.23,0-11.69.28Q302.6,72,301,80.1a31.46,31.46,0,0,1-6.91,14.51q15.45.31,20.59.31,5.88,0,9.61-.31.42-8.48.42-11.43v-20Q324.75,60.26,324.33,51.61Z"/><path class="cls-1" d="M378.13,81.32H357.79L355.41,87c-1.57,3.75-2.36,6-2.36,6.89a1.42,1.42,0,0,0,.44,1.16,5.44,5.44,0,0,0,2.24.56l3.37.39v2.21q-3.37-.24-7.59-.24c-3.38,0-6.34.08-8.9.24V96l1.06,0a7.76,7.76,0,0,0,3.18-.51,5.08,5.08,0,0,0,1.53-2.16q2.49-5.07,5.1-10.93l9.66-21.91q3.87-8.72,5.28-12.65h2.39L388.6,89.16A40.43,40.43,0,0,0,391,94.24a3.6,3.6,0,0,0,1.37,1.23,11.76,11.76,0,0,0,3.48.51v2.21c-3-.16-5.95-.24-8.72-.24q-3.87,0-10.3.24V96l3.48-.21a6.44,6.44,0,0,0,2.21-.39,1.17,1.17,0,0,0,.53-1,14.08,14.08,0,0,0-1.05-3.3Zm-19-2.89h17.71L368,57.31Z"/><line class="cls-1" x1="58.93" y1="98.71" x2="58.93" y2="0.86"/><line class="cls-2" x1="40.97" y1="133.87" x2="395.97" y2="133.87"/><line class="cls-3" x1="58.97" y1="98.87" x2="58.97" y2="132.87"/><path class="cls-2" d="M1.5,99.29c0,18.41,55.5,3.25,55.5,33.08"/><path class="cls-2" d="M14,109c6.2-.88,12.44-5.29,12.44-9.71"/><line class="cls-3" x1="2.56" y1="99.83" x2="25.54" y2="99.83"/><path class="cls-2" d="M116.44,99.27c0,18.41-55.5,3.26-55.5,33.09"/><path class="cls-2" d="M103.91,109c-6.2-.87-12.44-5.29-12.44-9.7"/><line class="cls-3" x1="115.39" y1="99.82" x2="92.41" y2="99.82"/></g></g></svg>