<svg xmlns="http://www.w3.org/2000/svg" viewBox="0 0 97.36 94.63"><defs><style>.cls-1{fill:none;stroke:#000;stroke-miterlimit:10;}.cls-2{fill:#292f71;}</style></defs><g id="Слой_2" data-name="Слой 2"><g id="Слой_1-2" data-name="Слой 1"><path class="cls-1" d="M96.71,36c0,.16-.1.32-.16.47A107.56,107.56,0,0,1,78.69,68.39c-1.12,1.4-2.29,2.77-3.49,4.11A106.52,106.52,0,0,1,66.7,81a108.29,108.29,0,0,1-18,13,108.29,108.29,0,0,1-18-13,106.52,106.52,0,0,1-8.5-8.5c-1.2-1.34-2.37-2.71-3.49-4.11A107.56,107.56,0,0,1,.85,36.5L.67,36A35.88,35.88,0,0,0,30.7.74V.5H66.42V.74a35.26,35.26,0,0,0,.18,3.57c0,.3.06.6.1.9A36,36,0,0,0,96.71,36Z"/><path class="cls-2" d="M96.71,36c0,.16-.1.32-.16.47A107.56,107.56,0,0,1,78.69,68.39c-1.12,1.4-2.29,2.77-3.49,4.11A106.52,106.52,0,0,1,66.7,81a108.29,108.29,0,0,1-18,13,108.29,108.29,0,0,1-18-13,106.52,106.52,0,0,1-8.5-8.5c-1.2-1.34-2.37-2.71-3.49-4.11A107.56,107.56,0,0,1,.85,36.5L.67,36A35.88,35.88,0,0,0,30.7.74V.5H66.42V.74a35.26,35.26,0,0,0,.18,3.57c0,.3.06.6.1.9A36,36,0,0,0,96.71,36Z"/></g></g></svg>