<?xml version="1.0" encoding="utf-8"?>
<!-- Generator: Adobe Illustrator 25.4.1, SVG Export Plug-In . SVG Version: 6.00 Build 0)  -->
<svg version="1.1" id="Слой_1" xmlns="http://www.w3.org/2000/svg" xmlns:xlink="http://www.w3.org/1999/xlink" x="0px" y="0px"
	 viewBox="0 0 579.8 245.3" style="enable-background:new 0 0 579.8 245.3;" xml:space="preserve">
<style type="text/css">
	.st0{enable-background:new    ;}
	.st1{fill:#B8CEDA;}
	.st2{fill:#292F71;}
</style>
<g id="Слой_2_00000021812660079544014340000000688818101677347772_">
	<g id="Слой_1-2">
		<g class="st0">
			<path class="st1" d="M91.3,71.2c0,4.7-1.1,8.3-3.3,10.9c-2.2,2.6-5.3,3.8-9.4,3.8c-3.8,0-6.7-1.1-8.9-3.3
				c-2.2-2.2-3.4-5.3-3.8-9.5h-5.5v12.3h-6.1V57h6.1v11.2H66c0.4-3.8,1.7-6.6,3.9-8.6c2.1-2,5-3,8.7-3c4.1,0,7.3,1.3,9.4,3.8
				C90.2,62.9,91.3,66.6,91.3,71.2z M72.1,71.2c0,3.2,0.5,5.6,1.6,7.2s2.7,2.4,4.8,2.4c4.3,0,6.5-3.2,6.5-9.6c0-3.2-0.5-5.6-1.6-7.2
				s-2.7-2.4-4.8-2.4c-2.1,0-3.8,0.8-4.9,2.4C72.7,65.7,72.1,68.1,72.1,71.2z"/>
			<path class="st1" d="M108.7,86c-2.6,0-4.6-0.9-6-2.8h-0.3c0.2,1.8,0.3,2.9,0.3,3.2v8.8h-6V63.7h4.8l0.8,2.8h0.3
				c1.4-2.2,3.5-3.2,6.2-3.2c2.6,0,4.6,1,6.1,3s2.2,4.8,2.2,8.3c0,2.3-0.3,4.4-1,6.1s-1.7,3-2.9,3.9C111.9,85.5,110.4,86,108.7,86z
				 M107,68.1c-1.5,0-2.5,0.5-3.2,1.4s-1,2.4-1.1,4.5v0.6c0,2.3,0.3,4,1,5s1.8,1.5,3.3,1.5c2.7,0,4-2.2,4-6.6c0-2.1-0.3-3.8-1-4.8
				C109.4,68.6,108.4,68.1,107,68.1z"/>
			<path class="st1" d="M127.8,63.7v8.6c0,0.9-0.1,3.1-0.4,6.7l10.1-15.3h7.2v21.8h-5.8v-8.7c0-1.5,0.1-3.7,0.4-6.6l-10,15.3H122
				V63.7H127.8z"/>
			<path class="st1" d="M173.7,93.4h-5.4v-7.8h-14.7v7.8h-5.4V81.2h1.8c1.2-1.9,2.3-4.4,3.1-7.3c0.8-3,1.4-6.3,1.8-10.1h15.4v17.5
				h3.2v12.1H173.7z M164.5,81.2v-13H160c-0.3,2.4-0.8,4.7-1.3,6.9s-1.4,4.2-2.4,6.1H164.5z"/>
			<path class="st1" d="M183.2,63.7v8.6c0,0.9-0.1,3.1-0.4,6.7l10.1-15.3h7.2v21.8h-5.8v-8.7c0-1.5,0.1-3.7,0.4-6.6l-10,15.3h-7.1
				V63.7H183.2z"/>
			<path class="st1" d="M211.4,63.7v8c0,1.9,0.9,2.9,2.6,2.9c1.1,0,2.2-0.1,3.2-0.4s2-0.6,3-1v-9.4h6v21.8h-6v-8.7
				c-1.4,0.7-2.7,1.2-3.8,1.5c-1.2,0.3-2.3,0.4-3.4,0.4c-2.4,0-4.2-0.6-5.5-1.8c-1.3-1.2-2-3-2-5.2v-8.1
				C205.5,63.7,211.4,63.7,211.4,63.7z"/>
			<path class="st1" d="M242.3,86c-3.5,0-6.3-1-8.2-2.9c-2-1.9-3-4.7-3-8.2c0-3.7,0.9-6.5,2.7-8.5s4.4-3,7.6-3
				c3.1,0,5.5,0.9,7.2,2.6s2.6,4.2,2.6,7.3v2.9h-14.1c0.1,1.7,0.6,3,1.5,4s2.3,1.4,3.9,1.4c1.3,0,2.6-0.1,3.7-0.4s2.4-0.7,3.7-1.3
				v4.6c-1,0.5-2.2,0.9-3.3,1.2C245.5,85.8,244,86,242.3,86z M241.5,67.6c-1.3,0-2.3,0.4-3,1.2c-0.7,0.8-1.1,1.9-1.2,3.4h8.4
				c0-1.5-0.4-2.6-1.2-3.4S242.7,67.6,241.5,67.6z"/>
			<path class="st1" d="M264.9,86c-6.8,0-10.2-3.7-10.2-11.2c0-3.7,0.9-6.5,2.8-8.5c1.8-2,4.5-2.9,7.9-2.9c2.5,0,4.8,0.5,6.8,1.5
				l-1.8,4.6c-0.9-0.4-1.8-0.7-2.6-0.9c-0.8-0.2-1.6-0.4-2.4-0.4c-3.1,0-4.6,2.2-4.6,6.6c0,4.3,1.5,6.4,4.6,6.4
				c1.1,0,2.2-0.2,3.2-0.5s2-0.8,2.9-1.4v5.1c-1,0.6-1.9,1-2.9,1.3C267.7,85.8,266.4,86,264.9,86z"/>
			<path class="st1" d="M291,63.7h6.6l-8.7,10.5l9.4,11.4h-6.8l-8.9-11.1v11.1h-6V63.7h6v10.6L291,63.7z"/>
			<path class="st1" d="M307.2,63.7v8.6c0,0.9-0.1,3.1-0.4,6.7l10.1-15.3h7.2v21.8h-5.8v-8.7c0-1.5,0.1-3.7,0.4-6.6l-10,15.3h-7.1
				V63.7H307.2z"/>
			<path class="st1" d="M336,63.7v8.6c0,0.9-0.1,3.1-0.4,6.7l10.1-15.3h7.2v21.8H347v-8.7c0-1.5,0.1-3.7,0.4-6.6l-10,15.3h-7.1V63.7
				H336z M351,54.3c-0.2,2.4-1.2,4.2-2.8,5.3s-3.9,1.7-6.9,1.7c-3.1,0-5.4-0.5-6.8-1.6s-2.3-2.9-2.5-5.4h5.3c0.1,1.3,0.4,2.3,1,2.8
				s1.6,0.8,3.1,0.8c1.3,0,2.3-0.3,2.9-0.9s1-1.5,1.2-2.7C345.5,54.3,351,54.3,351,54.3z"/>
			<path class="st1" d="M383.7,63.7h6.6l-8.7,10.5l9.4,11.4h-6.8l-8.9-11.1v11.1h-6V63.7h6v10.6L383.7,63.7z"/>
			<path class="st1" d="M408,85.6l-1.2-3h-0.2c-1,1.3-2,2.1-3.1,2.6s-2.4,0.7-4.2,0.7c-2.1,0-3.7-0.6-5-1.8s-1.8-2.9-1.8-5.1
				c0-2.3,0.8-4,2.4-5.1s4.1-1.7,7.3-1.8L406,72v-1c0-2.2-1.1-3.3-3.4-3.3c-1.7,0-3.8,0.5-6.2,1.6l-2-4c2.5-1.3,5.3-2,8.4-2
				c2.9,0,5.2,0.6,6.7,1.9s2.3,3.2,2.3,5.8v14.6C411.8,85.6,408,85.6,408,85.6z M406.3,75.4l-2.3,0.1c-1.7,0.1-3,0.4-3.9,0.9
				s-1.3,1.4-1.3,2.6c0,1.7,1,2.5,2.9,2.5c1.4,0,2.5-0.4,3.3-1.2s1.2-1.8,1.2-3.2L406.3,75.4L406.3,75.4z"/>
			<path class="st1" d="M417,72.5c0-5,1-8.8,2.9-11.4s4.9-4.2,8.9-4.9c1.4-0.2,2.8-0.5,4.3-0.6s2.9-0.3,4.5-0.6l0.7,5.2
				c-3.3,0.4-5.8,0.7-7.6,0.9s-3,0.5-3.8,0.8s-1.5,0.7-2,1.2s-0.9,1.2-1.2,2.1s-0.5,2-0.6,3.4h0.3c0.7-1.1,1.6-1.9,2.7-2.5
				s2.4-0.9,3.7-0.9c2.7,0,4.8,0.8,6.3,2.5s2.2,4,2.2,7.1c0,3.5-0.9,6.3-2.8,8.3S431,86,427.7,86s-5.9-1.2-7.8-3.6
				S417,76.7,417,72.5z M428,81.1c2.8,0,4.2-1.9,4.2-5.8c0-3.8-1.3-5.7-3.8-5.7c-0.7,0-1.4,0.2-2.1,0.5s-1.3,0.8-1.9,1.3
				s-1,1.1-1.3,1.6c0,2.6,0.4,4.7,1.3,6.1S426.4,81.1,428,81.1z"/>
			<path class="st1" d="M449,63.7v8.6c0,0.9-0.1,3.1-0.4,6.7l10.1-15.3h7.2v21.8H460v-8.7c0-1.5,0.1-3.7,0.4-6.6l-10,15.3h-7.1V63.7
				H449z"/>
			<path class="st1" d="M478,63.7v8.4h8.3v-8.4h6v21.8h-6v-9H478v9h-6V63.7H478z"/>
			<path class="st1" d="M508.4,86c-3.5,0-6.3-1-8.2-2.9s-3-4.7-3-8.2c0-3.7,0.9-6.5,2.7-8.5s4.4-3,7.6-3c3.1,0,5.5,0.9,7.2,2.6
				s2.6,4.2,2.6,7.3v2.9h-14.1c0.1,1.7,0.6,3,1.5,4s2.3,1.4,3.9,1.4c1.3,0,2.6-0.1,3.7-0.4c1.1-0.3,2.4-0.7,3.7-1.3v4.6
				c-1,0.5-2.2,0.9-3.3,1.2S510.1,86,508.4,86z M507.6,67.6c-1.3,0-2.3,0.4-3,1.2s-1.1,1.9-1.2,3.4h8.4c0-1.5-0.4-2.6-1.2-3.4
				S508.8,67.6,507.6,67.6z"/>
			<path class="st1" d="M540.2,63.7v4.5h-7.1v17.4h-6V68.2h-7.2v-4.5C519.9,63.7,540.2,63.7,540.2,63.7z"/>
		</g>
		<g class="st0">
			<path class="st1" d="M135.1,133.6l-2.1-6.8h-10.4l-2.1,6.8H114l10.1-28.7h7.4l10.1,28.7H135.1z M131.6,121.7
				c-1.9-6.2-3-9.6-3.2-10.4s-0.4-1.4-0.5-1.9c-0.4,1.7-1.7,5.8-3.7,12.4L131.6,121.7L131.6,121.7z"/>
			<path class="st1" d="M168.6,133.6h-6v-12.3h-11.3v12.3h-6.1V105h6.1v11.2h11.3V105h6V133.6z"/>
			<path class="st1" d="M199.2,133.6h-6v-12.3h-11.3v12.3h-6.1V105h6.1v11.2h11.3V105h6V133.6z"/>
			<path class="st1" d="M226,124.6c0,3-1,5.2-3,6.7s-4.9,2.2-8.8,2.2h-7.8V105h6.1v11h2c3.7,0,6.5,0.8,8.5,2.3S226,121.9,226,124.6z
				 M212.5,128.6h1.6c2,0,3.5-0.3,4.4-1s1.4-1.7,1.4-3s-0.4-2.3-1.3-2.9c-0.9-0.6-2.5-0.9-4.7-0.9h-1.3L212.5,128.6L212.5,128.6z
				 M235.5,133.6h-6V105h6V133.6z"/>
			<path class="st1" d="M253,105h8.9c4,0,7,0.6,8.8,1.7c1.8,1.2,2.7,3,2.7,5.5c0,1.7-0.4,3.1-1.2,4.2s-1.9,1.8-3.2,2v0.2
				c1.8,0.4,3.1,1.2,3.9,2.3s1.2,2.6,1.2,4.4c0,2.6-0.9,4.6-2.8,6.1s-4.4,2.2-7.7,2.2H253V105z M259.1,116.3h3.5
				c1.6,0,2.8-0.3,3.6-0.8c0.7-0.5,1.1-1.3,1.1-2.5c0-1.1-0.4-1.9-1.2-2.4s-2.1-0.7-3.8-0.7h-3.2V116.3z M259.1,121.1v7.4h3.9
				c1.7,0,2.9-0.3,3.7-1c0.8-0.6,1.2-1.6,1.2-2.9c0-2.4-1.7-3.6-5.1-3.6L259.1,121.1L259.1,121.1z"/>
		</g>
		<g class="st0">
			<path class="st1" d="M305.8,119.2c0,4.7-1.2,8.4-3.5,10.9c-2.3,2.5-5.7,3.8-10.1,3.8s-7.7-1.3-10.1-3.8s-3.5-6.2-3.5-10.9
				s1.2-8.4,3.5-10.9c2.4-2.5,5.7-3.8,10.1-3.8s7.7,1.3,10.1,3.8S305.8,114.5,305.8,119.2z M285,119.2c0,3.2,0.6,5.6,1.8,7.2
				s3,2.4,5.4,2.4c4.8,0,7.2-3.2,7.2-9.6s-2.4-9.6-7.2-9.6c-2.4,0-4.2,0.8-5.4,2.4C285.6,113.6,285,116.1,285,119.2z"/>
		</g>
		<g class="st0">
			<path class="st1" d="M334,133.6h-6V110h-7l-0.3,2.6c-0.8,6.7-1.5,11.3-2.1,14c-0.6,2.7-1.5,4.6-2.7,5.7s-2.8,1.6-4.8,1.6
				c-1.1,0-2.1-0.1-2.9-0.4v-5c0.8,0.3,1.5,0.4,2.1,0.4c0.7,0,1.2-0.3,1.6-0.9c0.4-0.6,0.8-1.8,1.1-3.5c0.4-1.7,0.8-4.5,1.4-8.4
				s1.1-7.6,1.5-11.1h18L334,133.6L334,133.6z"/>
			<path class="st1" d="M359.2,105v5h-12v23.6h-6.1V105H359.2z"/>
			<path class="st1" d="M363.6,105h5.4v13.8l-0.1,3.7l-0.2,4.2h0.1L382,105h7.2v28.6h-5.4v-13.7c0-1.8,0.1-4.6,0.4-8.2H384
				l-13.2,21.9h-7.3V105H363.6z"/>
			<path class="st1" d="M419.9,133.6h-6v-12.3h-11.3v12.3h-6.1V105h6.1v11.2h11.3V105h6V133.6z"/>
			<path class="st1" d="M453.1,119.2c0,4.7-1.2,8.4-3.5,10.9c-2.3,2.5-5.7,3.8-10.1,3.8s-7.7-1.3-10.1-3.8s-3.5-6.2-3.5-10.9
				s1.2-8.4,3.5-10.9c2.4-2.5,5.7-3.8,10.1-3.8s7.7,1.3,10.1,3.8S453.1,114.5,453.1,119.2z M432.2,119.2c0,3.2,0.6,5.6,1.8,7.2
				s3,2.4,5.4,2.4c4.8,0,7.2-3.2,7.2-9.6s-2.4-9.6-7.2-9.6c-2.4,0-4.2,0.8-5.4,2.4C432.8,113.6,432.2,116.1,432.2,119.2z"/>
			<path class="st1" d="M459,105h5.4v13.8l-0.1,3.7l-0.2,4.2h0.1l13.2-21.7h7.2v28.6h-5.4v-13.7c0-1.8,0.1-4.6,0.4-8.2h-0.2
				l-13.2,21.9H459V105z M481.3,95.7c-0.2,2.4-1.2,4.2-2.8,5.3c-1.6,1.1-3.9,1.7-6.9,1.7c-3.1,0-5.4-0.5-6.8-1.6
				c-1.5-1.1-2.3-2.9-2.5-5.4h5.3c0.1,1.3,0.4,2.3,1,2.8s1.6,0.8,3.1,0.8c1.3,0,2.3-0.3,2.9-0.9s1-1.5,1.2-2.7
				C475.8,95.7,481.3,95.7,481.3,95.7z"/>
		</g>
		<g class="st0">
			<path class="st1" d="M216.2,185.3c0,2.9-0.8,5.2-2.5,6.8c-1.7,1.6-4.1,2.3-7.2,2.3h-5.1v-17.8h5.6c2.9,0,5.2,0.8,6.8,2.3
				C215.4,180.3,216.2,182.5,216.2,185.3z M212.2,185.4c0-3.8-1.7-5.8-5.1-5.8h-2v11.6h1.6C210.4,191.2,212.2,189.3,212.2,185.4z"/>
			<path class="st1" d="M229.2,194.3l-0.5-1.7h-0.2c-0.4,0.6-1,1.1-1.7,1.5s-1.6,0.5-2.5,0.5c-1.6,0-2.8-0.4-3.6-1.3
				c-0.8-0.9-1.2-2.1-1.2-3.7v-8.9h3.7v8c0,1,0.2,1.7,0.5,2.2c0.3,0.5,0.9,0.7,1.7,0.7c1,0,1.8-0.3,2.3-1c0.5-0.7,0.7-1.8,0.7-3.5
				v-6.4h3.7v13.6H229.2z"/>
		</g>
		<g class="st0">
			<path class="st1" d="M243.6,180.4c0.5,0,0.9,0,1.3,0.1l-0.3,3.5c-0.3-0.1-0.7-0.1-1.1-0.1c-1.2,0-2.1,0.3-2.8,0.9
				c-0.7,0.6-1,1.5-1,2.6v6.9H236v-13.6h2.8l0.5,2.3h0.2c0.4-0.8,1-1.4,1.7-1.8C242,180.7,242.8,180.4,243.6,180.4z"/>
		</g>
		<g class="st0">
			<path class="st1" d="M255.8,194.3l-0.7-1.9H255c-0.6,0.8-1.3,1.3-1.9,1.6c-0.7,0.3-1.5,0.5-2.6,0.5c-1.3,0-2.3-0.4-3.1-1.1
				c-0.8-0.7-1.1-1.8-1.1-3.2c0-1.4,0.5-2.5,1.5-3.2c1-0.7,2.5-1.1,4.6-1.1l2.4-0.1v-0.6c0-1.4-0.7-2.1-2.1-2.1
				c-1.1,0-2.4,0.3-3.8,1l-1.2-2.5c1.6-0.8,3.3-1.2,5.2-1.2c1.8,0,3.2,0.4,4.2,1.2c1,0.8,1.5,2,1.5,3.6v9.1H255.8z M254.7,188
				l-1.4,0c-1.1,0-1.9,0.2-2.4,0.6c-0.5,0.4-0.8,0.9-0.8,1.6c0,1,0.6,1.6,1.8,1.6c0.9,0,1.6-0.2,2.1-0.7c0.5-0.5,0.8-1.2,0.8-2V188z
				"/>
			<path class="st1" d="M272.4,194.3h-3.7v-19h3.7V194.3z"/>
		</g>
		<g class="st0">
			<path class="st1" d="M282.5,194.6c-2.2,0-3.9-0.6-5.2-1.8c-1.2-1.2-1.9-2.9-1.9-5.2c0-2.3,0.6-4.1,1.7-5.3
				c1.1-1.2,2.7-1.9,4.7-1.9c1.9,0,3.4,0.5,4.5,1.6s1.6,2.6,1.6,4.6v1.8h-8.8c0,1.1,0.4,1.9,0.9,2.5s1.4,0.9,2.5,0.9
				c0.8,0,1.6-0.1,2.3-0.3s1.5-0.4,2.3-0.8v2.9c-0.7,0.3-1.3,0.6-2.1,0.7C284.5,194.5,283.6,194.6,282.5,194.6z M282,183.1
				c-0.8,0-1.4,0.2-1.9,0.8c-0.4,0.5-0.7,1.2-0.8,2.1h5.2c0-0.9-0.3-1.6-0.7-2.1C283.4,183.3,282.8,183.1,282,183.1z"/>
		</g>
		<g class="st0">
			<path class="st1" d="M293.7,187.4l-4.4-6.7h4.2l2.6,4.3l2.7-4.3h4.2l-4.4,6.7l4.7,7H299l-2.9-4.7l-2.9,4.7H289L293.7,187.4z"/>
			<path class="st1" d="M308.8,190.8l0.2,0.3c-0.1,0.5-0.2,1-0.4,1.5c-0.2,0.5-0.3,1.1-0.5,1.6c-0.2,0.5-0.4,1.1-0.6,1.6
				c-0.2,0.5-0.4,1-0.6,1.5h-2.7c0.1-0.5,0.2-1.1,0.4-1.6c0.1-0.6,0.2-1.1,0.3-1.7c0.1-0.6,0.2-1.1,0.3-1.7c0.1-0.5,0.2-1,0.2-1.5
				H308.8z"/>
			<path class="st1" d="M328.6,190.3c0,1.4-0.5,2.5-1.5,3.2s-2.4,1.1-4.4,1.1c-1,0-1.8-0.1-2.5-0.2c-0.7-0.1-1.4-0.3-2-0.6v-3.1
				c0.7,0.3,1.5,0.6,2.3,0.8c0.9,0.2,1.6,0.3,2.3,0.3c1.4,0,2-0.4,2-1.2c0-0.3-0.1-0.5-0.3-0.7c-0.2-0.2-0.5-0.4-0.9-0.6
				c-0.4-0.2-1-0.5-1.8-0.8c-1-0.4-1.8-0.8-2.3-1.2c-0.5-0.4-0.9-0.8-1.1-1.3c-0.2-0.5-0.3-1.1-0.3-1.8c0-1.2,0.5-2.1,1.4-2.8
				c0.9-0.7,2.3-1,4-1c1.6,0,3.2,0.4,4.8,1.1l-1.1,2.7c-0.7-0.3-1.3-0.5-1.9-0.7s-1.2-0.3-1.8-0.3c-1.1,0-1.6,0.3-1.6,0.9
				c0,0.3,0.2,0.6,0.5,0.9c0.4,0.2,1.1,0.6,2.3,1.1c1.1,0.4,1.8,0.8,2.3,1.2c0.5,0.4,0.9,0.8,1.1,1.3S328.6,189.6,328.6,190.3z"/>
			<path class="st1" d="M337.7,194.6c-2.2,0-3.9-0.6-5.2-1.8c-1.2-1.2-1.9-2.9-1.9-5.2c0-2.3,0.6-4.1,1.7-5.3
				c1.1-1.2,2.7-1.9,4.7-1.9c1.9,0,3.4,0.5,4.5,1.6s1.6,2.6,1.6,4.6v1.8h-8.8c0,1.1,0.4,1.9,0.9,2.5s1.4,0.9,2.5,0.9
				c0.8,0,1.6-0.1,2.3-0.3s1.5-0.4,2.3-0.8v2.9c-0.7,0.3-1.3,0.6-2.1,0.7C339.6,194.5,338.7,194.6,337.7,194.6z M337.1,183.1
				c-0.8,0-1.4,0.2-1.9,0.8c-0.4,0.5-0.7,1.2-0.8,2.1h5.2c0-0.9-0.3-1.6-0.7-2.1C338.6,183.3,337.9,183.1,337.1,183.1z"/>
			<path class="st1" d="M350.6,194.6c-1.6,0-2.9-0.6-3.8-1.9c-0.9-1.2-1.4-3-1.4-5.2c0-2.2,0.5-4,1.4-5.2c0.9-1.2,2.2-1.9,3.9-1.9
				c1.7,0,3,0.7,3.9,2h0.1c-0.2-1-0.3-1.9-0.3-2.7v-4.4h3.7v19h-2.9l-0.7-1.8h-0.2C353.6,193.9,352.3,194.6,350.6,194.6z
				 M351.9,191.6c1,0,1.7-0.3,2.1-0.8c0.4-0.6,0.7-1.5,0.7-2.8v-0.4c0-1.5-0.2-2.5-0.7-3.1c-0.5-0.6-1.2-1-2.2-1
				c-0.8,0-1.5,0.4-1.9,1.1c-0.5,0.7-0.7,1.7-0.7,3.1c0,1.3,0.2,2.3,0.7,3C350.4,191.3,351,191.6,351.9,191.6z"/>
			<path class="st1" d="M372.3,194.3h-3.7v-19h3.7V194.3z"/>
		</g>
		<g class="st0">
			<path class="st1" d="M382.4,194.6c-2.2,0-3.9-0.6-5.2-1.8c-1.2-1.2-1.9-2.9-1.9-5.2c0-2.3,0.6-4.1,1.7-5.3
				c1.1-1.2,2.7-1.9,4.7-1.9c1.9,0,3.4,0.5,4.5,1.6s1.6,2.6,1.6,4.6v1.8h-8.8c0,1.1,0.4,1.9,0.9,2.5s1.4,0.9,2.5,0.9
				c0.8,0,1.6-0.1,2.3-0.3s1.5-0.4,2.3-0.8v2.9c-0.7,0.3-1.3,0.6-2.1,0.7C384.3,194.5,383.4,194.6,382.4,194.6z M381.9,183.1
				c-0.8,0-1.4,0.2-1.9,0.8c-0.4,0.5-0.7,1.2-0.8,2.1h5.2c0-0.9-0.3-1.6-0.7-2.1C383.3,183.3,382.6,183.1,381.9,183.1z"/>
		</g>
		<g class="st0">
			<path class="st1" d="M393.5,187.4l-4.4-6.7h4.2l2.6,4.3l2.7-4.3h4.2l-4.4,6.7l4.7,7h-4.2l-2.9-4.7l-2.9,4.7h-4.2L393.5,187.4z"/>
		</g>
		<path class="st2" d="M144,0c-35.1,0-69,12.8-95.2,36C44.2,40,40,44.2,36,48.8C12.8,75,0,108.9,0,144V0H144z"/>
		<path class="st2" d="M435.8,205.8c35.1,0,69-12.8,95.2-36c4.5-4,8.8-8.2,12.8-12.8c23.2-26.3,36-60.2,36-95.2v144H435.8z"/>
	</g>
</g>
</svg>
